<svg width="13" height="13" viewBox="0 0 13 13" fill="none" xmlns="http://www.w3.org/2000/svg">
<g clip-path="url(#clip0_7520_174)">
<circle cx="6.5" cy="6.5" r="6.5" fill="#9A9E9E"/>
<path d="M4.45 4.3V3.3C4.47 3.28 4.49667 3.25333 4.53 3.22C4.56333 3.18667 4.63667 3.12667 4.75 3.04C4.87 2.95333 4.99667 2.87667 5.13 2.81C5.26333 2.74333 5.43333 2.68333 5.64 2.63C5.85333 2.57667 6.07333 2.55 6.3 2.55C6.94 2.55 7.45 2.72667 7.83 3.08C8.21 3.43333 8.4 3.89 8.4 4.45C8.4 4.71 8.33333 4.96667 8.2 5.22C8.06667 5.47333 7.90333 5.70667 7.71 5.92C7.51667 6.13333 7.32333 6.34667 7.13 6.56C6.94333 6.77333 6.78333 7.00667 6.65 7.26C6.51667 7.50667 6.45 7.75333 6.45 8H5.6C5.6 7.71333 5.66333 7.43 5.79 7.15C5.91667 6.87 6.07 6.61667 6.25 6.39C6.43 6.16333 6.61 5.94333 6.79 5.73C6.97667 5.51 7.13333 5.28667 7.26 5.06C7.38667 4.82667 7.45 4.60667 7.45 4.4C7.45 4.09333 7.35 3.85 7.15 3.67C6.95 3.49 6.66667 3.4 6.3 3.4C6.09333 3.4 5.89333 3.43333 5.7 3.5C5.51333 3.56 5.35333 3.63333 5.22 3.72C5.09333 3.80667 4.98 3.89333 4.88 3.98C4.78667 4.06667 4.71667 4.14 4.67 4.2L4.6 4.3H4.45ZM5.66 9.95C5.55333 9.85 5.5 9.71667 5.5 9.55C5.5 9.38333 5.55333 9.25 5.66 9.15C5.76667 9.05 5.89667 9 6.05 9C6.20333 9 6.33333 9.05 6.44 9.15C6.54667 9.25 6.6 9.38333 6.6 9.55C6.6 9.71667 6.54667 9.85 6.44 9.95C6.33333 10.05 6.20333 10.1 6.05 10.1C5.89667 10.1 5.76667 10.05 5.66 9.95Z" fill="white"/>
</g>
<defs>
<clipPath id="clip0_7520_174">
<rect width="13" height="13" fill="white"/>
</clipPath>
</defs>
</svg>
