<svg width="216" height="26" viewBox="0 0 216 26" fill="none" xmlns="http://www.w3.org/2000/svg">
<path d="M194.148 15.9931V0H182.07V26H216.002V15.9931H194.148Z" fill="white"/>
<path d="M26.1298 7.681H12.0782V0H0V26H12.0782V17.6879H26.1298V26H38.1897V0H26.1298V7.681Z" fill="white"/>
<path d="M75.449 0H74.7363H60.7578L67.7562 11.9362L75.9789 26H90.6517H90.67L75.449 0Z" fill="white"/>
<path d="M45.4453 26.0003H59.5152L67.0252 13.1987L59.972 1.1543L45.4453 26.0003Z" fill="white"/>
<path d="M159.587 0H158.893H144.914L151.894 11.9362L160.135 26H174.808H174.826L159.605 0H159.587Z" fill="white"/>
<path d="M129.586 26.0003H143.674L151.166 13.1987L144.131 1.1543L129.586 26.0003Z" fill="white"/>
<path d="M132.745 0H118.054L109.832 14.0638L102.852 26H116.812H117.524H117.543L132.745 0Z" fill="white"/>
<path d="M101.593 0H87.5234L102.05 24.846L109.103 12.8197L101.593 0Z" fill="white"/>
</svg>