<svg width="38" height="54" viewBox="0 0 38 54" fill="none" xmlns="http://www.w3.org/2000/svg">
<path d="M20.8824 0C20.7089 0.0187625 20.5354 0.037525 20.3618 0.0562875C20.3596 0.061541 20.3566 0.067545 20.3543 0.0727985C20.481 0.096064 20.6078 0.138092 20.7353 0.138843C21.8896 0.144847 23.0009 0.406771 24.1016 0.712225C27.5887 1.67812 30.5499 3.50409 33.0011 6.14885C34.6194 7.89451 35.8552 9.88259 36.7198 12.0936C37.1936 13.3056 37.5331 14.5567 37.739 15.8431C37.9088 16.9065 38.0212 17.9752 37.9955 19.0522C37.9586 20.5877 37.6017 22.067 37.1385 23.5244C36.3599 25.9703 35.3233 28.3111 34.1448 30.5859C33.2403 32.3331 32.2866 34.057 31.2998 35.7591C30.3598 37.3809 29.3601 38.969 28.3635 40.5578C27.5759 41.8134 26.7641 43.054 25.9432 44.2878C25.2575 45.319 24.5536 46.3389 23.8376 47.3498C22.8108 48.7998 21.7696 50.24 20.727 51.6795C20.2132 52.3887 19.6836 53.0866 19.16 53.7899C19.1117 53.8544 19.0597 53.9159 18.9918 54.0015C18.9148 53.8964 18.8462 53.8041 18.7783 53.7118C17.8699 52.4765 16.9465 51.2517 16.057 50.0036C14.8657 48.3322 13.6691 46.6639 12.5322 44.9565C10.9969 42.6509 9.4714 40.3364 8.02437 37.9753C6.76142 35.9137 5.58146 33.7995 4.42339 31.6779C3.48108 29.951 2.63309 28.1738 1.88995 26.3508C1.20114 24.6607 0.592305 22.9443 0.24526 21.1476C0.0392954 20.0834 -0.0452027 19.0124 0.023452 17.9234C0.172078 15.5549 0.697173 13.2831 1.68852 11.1239C2.82019 8.65777 4.40604 6.5241 6.45436 4.72965C8.25598 3.15135 10.2847 1.9513 12.5367 1.13401C13.854 0.655937 15.2165 0.340727 16.6077 0.162859C16.9427 0.12008 17.2822 0.114827 17.6232 0.069046C17.5274 0.0457805 17.4331 0.0232655 17.338 0C18.5195 0 19.7009 0 20.8832 0H20.8824ZM24.4351 18.8863C24.4585 15.807 21.7855 13.455 18.9812 13.4955C15.8178 13.5413 13.3802 16.1207 13.5658 19.2586C13.7235 21.9251 15.9664 24.3868 19.1774 24.3117C22.0714 24.2442 24.4645 21.8396 24.4351 18.8863Z" fill="black"/>
</svg>